<?xml version="1.0" encoding="UTF-8" standalone="no"?>
<!-- Created with Inkscape (http://www.inkscape.org/) -->

<svg
   xmlns:dc="http://purl.org/dc/elements/1.1/"
   xmlns:cc="http://creativecommons.org/ns#"
   xmlns:rdf="http://www.w3.org/1999/02/22-rdf-syntax-ns#"
   xmlns:svg="http://www.w3.org/2000/svg"
   xmlns="http://www.w3.org/2000/svg"
   xmlns:xlink="http://www.w3.org/1999/xlink"
   xmlns:sodipodi="http://sodipodi.sourceforge.net/DTD/sodipodi-0.dtd"
   xmlns:inkscape="http://www.inkscape.org/namespaces/inkscape"
   version="1.2"
   width="90"
   height="90"
   id="svg2"
   inkscape:version="0.48.4 r9939"
   sodipodi:docname="ic_launcher.svg"
   inkscape:export-filename="/home/giovanni/workspace/gCanteen/res/drawable-xxhdpi/ic_launcher.png"
   inkscape:export-xdpi="32.400002"
   inkscape:export-ydpi="32.400002">
  <sodipodi:namedview
     pagecolor="#ffffff"
     bordercolor="#666666"
     borderopacity="1"
     objecttolerance="10"
     gridtolerance="10"
     guidetolerance="10"
     inkscape:pageopacity="0"
     inkscape:pageshadow="2"
     inkscape:window-width="1920"
     inkscape:window-height="1050"
     id="namedview60"
     showgrid="false"
     inkscape:zoom="4.8129629"
     inkscape:cx="46.336453"
     inkscape:cy="13.648558"
     inkscape:window-x="0"
     inkscape:window-y="0"
     inkscape:window-maximized="1"
     inkscape:current-layer="svg2"
     units="in" />
  <metadata
     id="metadata8">
    <rdf:RDF>
      <cc:Work
         rdf:about="">
        <dc:format>image/svg+xml</dc:format>
        <dc:type
           rdf:resource="http://purl.org/dc/dcmitype/StillImage" />
        <dc:title />
      </cc:Work>
    </rdf:RDF>
  </metadata>
  <defs
     id="defs6">
    <linearGradient
       id="linearGradient3813">
      <stop
         id="stop3815"
         style="stop-color:#7b7b7b;stop-opacity:1"
         offset="0" />
      <stop
         id="stop3817"
         style="stop-color:#919191;stop-opacity:1"
         offset="0.61307335" />
      <stop
         id="stop3819"
         style="stop-color:#7d7d7d;stop-opacity:1"
         offset="1" />
    </linearGradient>
    <linearGradient
       id="linearGradient3823">
      <stop
         id="stop3825"
         style="stop-color:#848484;stop-opacity:1"
         offset="0" />
      <stop
         id="stop3829"
         style="stop-color:#cacaca;stop-opacity:1"
         offset="1" />
    </linearGradient>
    <linearGradient
       id="linearGradient3723">
      <stop
         id="stop3725"
         style="stop-color:#868686;stop-opacity:1"
         offset="0" />
      <stop
         id="stop3727"
         style="stop-color:#333333;stop-opacity:1"
         offset="1" />
    </linearGradient>
    <linearGradient
       id="linearGradient3759">
      <stop
         id="stop3761"
         style="stop-color:#7b7b7b;stop-opacity:1"
         offset="0" />
      <stop
         id="stop3763"
         style="stop-color:#969696;stop-opacity:1"
         offset="0.39824781" />
      <stop
         id="stop3765"
         style="stop-color:#7d7d7d;stop-opacity:1"
         offset="1" />
    </linearGradient>
    <linearGradient
       id="linearGradient3332">
      <stop
         id="stop3334"
         style="stop-color:#868686;stop-opacity:1"
         offset="0" />
      <stop
         id="stop3336"
         style="stop-color:#333333;stop-opacity:1"
         offset="1" />
    </linearGradient>
    <linearGradient
       id="linearGradient3767">
      <stop
         id="stop3769"
         style="stop-color:#7b7b7b;stop-opacity:1"
         offset="0" />
      <stop
         id="stop3771"
         style="stop-color:#aaaaaa;stop-opacity:1"
         offset="0.59164107" />
      <stop
         id="stop3773"
         style="stop-color:#7d7d7d;stop-opacity:1"
         offset="1" />
    </linearGradient>
    <linearGradient
       id="linearGradient3344">
      <stop
         id="stop3346"
         style="stop-color:#7b7b7b;stop-opacity:1"
         offset="0" />
      <stop
         id="stop3348"
         style="stop-color:#969696;stop-opacity:1"
         offset="0.39824781" />
      <stop
         id="stop3350"
         style="stop-color:#7d7d7d;stop-opacity:1"
         offset="1" />
    </linearGradient>
    <linearGradient
       inkscape:collect="always"
       xlink:href="#linearGradient3723"
       id="linearGradient3254"
       gradientUnits="userSpaceOnUse"
       gradientTransform="matrix(0.98577377,0,0,0.98577377,-77.369928,-301.58593)"
       x1="85.342316"
       y1="584.987"
       x2="107.32287"
       y2="623.48492" />
    <linearGradient
       id="linearGradient3353">
      <stop
         id="stop3355"
         style="stop-color:#868686;stop-opacity:1"
         offset="0" />
      <stop
         id="stop3357"
         style="stop-color:#333333;stop-opacity:1"
         offset="1" />
    </linearGradient>
    <linearGradient
       inkscape:collect="always"
       xlink:href="#linearGradient3759"
       id="linearGradient3511"
       gradientUnits="userSpaceOnUse"
       gradientTransform="translate(-78.543208,-308.43146)"
       x1="61.572643"
       y1="441.14804"
       x2="78.543205"
       y2="585.39783" />
    <linearGradient
       inkscape:collect="always"
       xlink:href="#linearGradient3723"
       id="linearGradient3513"
       gradientUnits="userSpaceOnUse"
       gradientTransform="translate(-78.719985,-308.43146)"
       x1="135.8578"
       y1="377.70193"
       x2="86.713882"
       y2="372.21707" />
    <linearGradient
       inkscape:collect="always"
       xlink:href="#linearGradient3767"
       id="linearGradient3515"
       gradientUnits="userSpaceOnUse"
       gradientTransform="translate(-78.543208,-308.43146)"
       x1="97.757515"
       y1="351.4426"
       x2="101.11627"
       y2="376.72165" />
    <linearGradient
       inkscape:collect="always"
       xlink:href="#linearGradient3759"
       id="linearGradient3517"
       gradientUnits="userSpaceOnUse"
       gradientTransform="translate(-78.543208,-308.43146)"
       x1="111.19255"
       y1="356.92267"
       x2="107.12668"
       y2="393.6922" />
    <linearGradient
       inkscape:collect="always"
       xlink:href="#linearGradient3723"
       id="linearGradient3519"
       gradientUnits="userSpaceOnUse"
       gradientTransform="matrix(0.98577377,0,0,0.98577377,-77.369928,-301.58593)"
       x1="85.342316"
       y1="584.987"
       x2="107.32287"
       y2="623.48492" />
    <linearGradient
       inkscape:collect="always"
       xlink:href="#linearGradient3813"
       id="linearGradient3521"
       gradientUnits="userSpaceOnUse"
       gradientTransform="translate(-78.543208,-308.43146)"
       x1="142.9326"
       y1="434.2764"
       x2="181.82518"
       y2="599.19299" />
    <linearGradient
       inkscape:collect="always"
       xlink:href="#linearGradient3823"
       id="linearGradient3523"
       gradientUnits="userSpaceOnUse"
       gradientTransform="translate(-78.418208,-307.68146)"
       x1="174.23402"
       y1="446.1658"
       x2="178.92662"
       y2="459.80579" />
    <linearGradient
       inkscape:collect="always"
       xlink:href="#linearGradient3723"
       id="linearGradient3525"
       gradientUnits="userSpaceOnUse"
       gradientTransform="matrix(0.98577377,0,0,0.98577377,-1.369927,-301.58593)"
       x1="85.342316"
       y1="584.987"
       x2="107.32287"
       y2="623.48492" />
  </defs>
  <flowRoot
     transform="matrix(1.0562808,0,0,1.0626029,771.88317,-422.6816)"
     id="flowRoot3164"
     xml:space="preserve"
     style="font-size:20px;font-style:normal;font-variant:normal;font-weight:normal;font-stretch:normal;line-height:125%;letter-spacing:0px;word-spacing:0px;fill:#000000;fill-opacity:1;stroke:none;font-family:DaunPenh;-inkscape-font-specification:DaunPenh"><flowRegion
       id="flowRegion3166"><rect
         width="342.58188"
         height="62.58189"
         x="33.44894"
         y="441.8497"
         id="rect3168"
         style="font-style:normal;font-variant:normal;font-weight:normal;font-stretch:normal;font-family:DaunPenh;-inkscape-font-specification:DaunPenh" /></flowRegion><flowPara
       id="flowPara3170" /></flowRoot>  <flowRoot
     transform="matrix(1.0562808,0,0,1.0626029,771.88317,-422.6816)"
     id="flowRoot3172"
     xml:space="preserve"
     style="font-size:20px;font-style:normal;font-weight:bold;line-height:125%;letter-spacing:0px;word-spacing:0px;fill:#000000;fill-opacity:1;stroke:none;font-family:Sans;-inkscape-font-specification:Sans Bold"><flowRegion
       id="flowRegion3174"><rect
         width="2.1579962"
         height="26.435453"
         x="376.03082"
         y="501.19461"
         id="rect3176" /></flowRegion><flowPara
       id="flowPara3178" /></flowRoot>  <text
     x="822.20117"
     y="135.85387"
     transform="scale(0.99702071,1.0029882)"
     id="text3188"
     xml:space="preserve"
     style="font-size:21.18874359px;font-style:normal;font-variant:normal;font-weight:normal;font-stretch:normal;line-height:125%;letter-spacing:0px;word-spacing:0px;fill:#000000;fill-opacity:1;stroke:none;font-family:DaunPenh;-inkscape-font-specification:DaunPenh"
     sodipodi:linespacing="125%"><tspan
       x="822.20117"
       y="135.85387"
       id="tspan3190" /></text>
  <flowRoot
     transform="matrix(1.0562808,0,0,1.0626029,771.88317,-422.6816)"
     id="flowRoot3192"
     xml:space="preserve"
     style="font-size:20px;font-style:normal;font-variant:normal;font-weight:normal;font-stretch:normal;line-height:125%;letter-spacing:0px;word-spacing:0px;fill:#000000;fill-opacity:1;stroke:none;font-family:DaunPenh;-inkscape-font-specification:DaunPenh"><flowRegion
       id="flowRegion3194"><rect
         width="399.7688"
         height="147.82274"
         x="25.356455"
         y="509.8266"
         id="rect3196" /></flowRegion><flowPara
       id="flowPara3198" /></flowRoot>  <flowRoot
     transform="matrix(1.0562808,0,0,1.0626029,771.88317,-422.6816)"
     id="flowRoot3200"
     xml:space="preserve"
     style="font-size:90px;font-style:normal;font-variant:normal;font-weight:normal;font-stretch:normal;line-height:125%;letter-spacing:0px;word-spacing:0px;fill:#000000;fill-opacity:1;stroke:none;font-family:DaunPenh;-inkscape-font-specification:DaunPenh"><flowRegion
       id="flowRegion3202"><rect
         width="412.17728"
         height="179.11368"
         x="19.421965"
         y="506.5896"
         id="rect3204"
         style="font-size:90px" /></flowRegion><flowPara
       id="flowPara3206" /></flowRoot>  <flowRoot
     transform="matrix(1.0562808,0,0,1.0626029,771.88317,-422.6816)"
     id="flowRoot3208"
     xml:space="preserve"
     style="font-size:90px;font-style:normal;font-variant:normal;font-weight:normal;font-stretch:normal;line-height:125%;letter-spacing:0px;word-spacing:0px;fill:#000000;fill-opacity:1;stroke:none;font-family:DaunPenh;-inkscape-font-specification:DaunPenh"><flowRegion
       id="flowRegion3210"><rect
         width="396.5318"
         height="192.06166"
         x="10.250482"
         y="504.43161"
         id="rect3212"
         style="font-size:90px" /></flowRegion><flowPara
       id="flowPara3214" /></flowRoot>  <g
     style="font-size:93.87129211px;font-style:normal;font-variant:normal;font-weight:normal;font-stretch:normal;text-align:start;line-height:80.00000119%;letter-spacing:0px;word-spacing:0px;writing-mode:lr-tb;text-anchor:start;fill:#000000;fill-opacity:1;stroke:none;font-family:DaunPenh;-inkscape-font-specification:DaunPenh"
     transform="matrix(0.22695684,0,0,0.21788861,182.2707,18.339498)"
     id="g3265">
    <path
       d="m -592.34794,11.511928 c -15.56098,0.680301 -31.59873,1.426049 -46.56527,5.802092 -2.97475,8.207717 -1.46333,19.289591 -9.38054,24.861084 -12.42378,10.626371 -30.75145,5.21377 -42.10942,-4.694348 -4.51276,-4.574475 -7.38264,3.904862 -10.02343,6.874528 -10.30722,17.571224 -13.9066,42.116531 -2.59821,59.990106 8.05837,6.81109 18.99558,9.8177 25.17224,19.12933 6.25977,6.90592 8.53245,20.08706 -0.10123,25.916 -3.64176,2.56748 -9.59224,3.66871 -7.60591,9.77561 0.49607,24.60012 0.68212,49.40487 4.02916,73.77451 5.13569,20.59961 19.10139,39.81945 37.95988,48.12809 9.17254,-7.11598 22.72934,-13.60676 33.67639,-6.52886 5.3097,3.31599 3.48161,10.17497 5.16267,15.26127 6.84872,2.70896 15.01036,0.98203 22.3041,0.9846 4.81663,0.51567 6.20454,-4.54807 5.80378,-8.58007 1.2518,-9.53491 11.99685,-12.72125 19.90834,-9.91631 7.10108,0.85079 12.87169,6.43533 19.33471,8.58007 20.46251,-11.93538 37.44067,-33.70993 38.06205,-59.00552 1.6549,-22.53382 3.25461,-45.50459 1.92658,-67.9132 -6.77926,-3.88881 -15.37248,-10.75432 -12.52187,-20.10276 4.1452,-13.95801 17.76507,-21.26377 29.12017,-28.23684 8.20976,-8.42646 9.0547,-21.984668 8.40198,-33.370826 -1.36088,-12.779434 -6.26389,-25.97784 -15.25179,-34.84771 -5.9643,-1.589193 -9.83125,6.139806 -15.31931,7.419644 -13.15231,7.196111 -34.42681,2.728675 -37.62339,-14.171169 -1.89765,-4.508559 2.44719,-13.359637 -4.88256,-13.112458 -15.34219,-3.883028 -30.99498,-6.622805 -46.87912,-6.016863 z m 3.40804,27.392906 c 26.87226,-0.315677 56.35522,8.767378 71.67003,33.370815 6.37819,9.258155 2.2236,21.075209 2.93563,31.682941 0.13723,21.12195 -10.29913,40.3331 -11.10144,61.43184 -2.58448,22.04316 -0.46785,45.07683 -7.1535,66.35483 -8.55201,19.22594 -28.50202,30.07975 -47.88125,33.15983 -24.10021,3.28198 -51.11974,-4.07109 -66.30489,-24.7556 -9.51509,-14.28679 -8.01325,-32.91932 -9.73197,-49.4728 -0.40585,-23.16191 -4.11948,-46.03438 -10.63921,-68.15282 -3.24217,-14.28674 -3.88985,-29.626913 -2.20285,-44.164813 10.02962,-24.074024 36.06185,-36.042421 59.99009,-38.57631 6.78397,-0.73687 13.60211,-0.931301 20.41936,-0.877913 z"
       id="path3412"
       style="fill:#ffffff;fill-opacity:1"
       inkscape:connector-curvature="0" />
    <path
       d="m -661.9259,72.66245 c -5.15008,2.993908 -4.6013,11.070344 -5.23016,16.492013 0.1858,11.976537 -0.41087,24.862157 4.28536,35.972967 3.52864,3.69705 8.78617,-1.06873 13.02914,-0.58097 13.67884,-2.75786 28.08965,-2.92515 41.39823,-6.87384 4.75725,-10.35201 8.9414,-21.232439 12.04624,-32.245556 -2.47946,-4.023908 -8.58508,0.446138 -12.31618,0.386801 -16.26336,3.211089 -30.94685,11.4553 -45.82292,18.390875 -3.98071,-0.72598 1.33309,-6.027596 1.92064,-7.886345 2.84796,-4.757733 8.38041,-10.50239 1.89231,-14.935221 -3.00531,-3.152252 -6.44802,-8.571508 -11.20266,-8.720724 z"
       id="path3414"
       style="fill:#ffffff;fill-opacity:1"
       inkscape:connector-curvature="0" />
    <path
       d="m -612.12131,43.194865 c -17.29262,3.070125 -34.87065,10.328775 -47.27387,23.524835 -0.87032,4.691653 6.21095,3.155236 8.8744,4.008726 17.46207,0.687481 34.76713,3.325396 51.89666,6.540538 5.40714,-0.719191 -0.35644,-7.898326 -0.6439,-10.808067 -3.43298,-7.539858 -5.24734,-16.425384 -10.01888,-23.055047 -0.89337,-0.395289 -1.89269,-0.232769 -2.83441,-0.210985 z"
       id="path3416"
       style="fill:#ffffff;fill-opacity:1"
       inkscape:connector-curvature="0" />
    <path
       d="m -573.3844,42.948716 c -5.66251,4.944779 -6.83711,14.179664 -10.12405,20.996671 -0.4323,4.049327 -5.63455,9.274024 -2.86699,13.077425 9.42996,0.05388 19.86935,-3.696082 29.75424,-4.172163 11.22372,-1.785043 22.95732,-1.222743 33.95245,-3.423304 -1.06065,-4.879695 -7.69897,-7.273086 -11.25849,-10.738424 -11.54745,-8.42183 -25.09343,-13.797547 -38.98476,-15.880863 l -0.4724,0.140658 z"
       id="path3418"
       style="fill:#ffffff;fill-opacity:1"
       inkscape:connector-curvature="0" />
    <path
       d="m -608.13766,42.245431 c 1.2318,5.56636 11.14367,6.963032 15.6097,10.92034 5.40213,0.08941 10.75972,-4.380569 15.21427,-7.439085 2.49922,-4.870589 -6.86,-4.050812 -10.04548,-4.043882 -6.85912,0.378952 -14.15557,-0.770499 -20.77849,0.562627 z"
       id="path3420"
       style="fill:#ffffff;fill-opacity:1"
       inkscape:connector-curvature="0" />
    <path
       d="m -522.42433,71.040452 c -2.05211,0.457356 -3.44672,2.364272 -5.01058,3.679986 -3.37338,3.303206 -6.69866,6.701335 -9.91001,10.163925 -1.00638,1.57063 0.86286,2.950795 1.46815,4.289003 2.66771,4.430004 5.72769,8.660856 7.9766,13.352184 0.54944,0.83033 0.0807,2.13547 -0.86492,2.26892 -3.45643,-1.38659 -6.41942,-3.83542 -9.75861,-5.502286 -10.1776,-5.610261 -20.96187,-10.011322 -32.15126,-12.872836 -5.17154,-1.293543 -10.32716,-2.848372 -15.63416,-3.437554 -1.41904,-0.186864 -2.33231,1.43746 -1.7895,2.710256 2.46666,8.028974 5.63889,15.82244 8.53795,23.69778 1.24628,3.12545 2.31312,6.34661 3.74392,9.37868 1.26965,1.19303 3.28778,0.84472 4.92543,1.12665 13.21966,1.22011 26.39772,3.01518 39.48317,5.37601 2.66369,0.37168 5.2732,1.38685 7.96978,1.52246 1.95855,0.0435 3.45794,-1.6276 3.88319,-3.51216 3.04865,-10.65874 3.74368,-21.91414 3.32048,-32.98267 -0.3439,-5.526565 -0.66103,-11.250691 -2.80152,-16.386461 -0.61494,-1.403836 -1.70195,-3.043647 -3.38811,-2.871887 z"
       id="path3424"
       style="fill:#ffffff;fill-opacity:1"
       inkscape:connector-curvature="0" />
    <path
       d="m -592.25023,109.08365 c -3.39991,0.34878 -6.18216,2.7176 -9.01903,4.48188 -1.7147,1.34185 -3.7988,2.25251 -5.24321,3.91 -0.53186,1.49911 1.04609,2.53009 2.3323,2.18713 8.12137,-0.053 16.25068,0.0926 24.36689,-0.17308 1.27103,0.12942 2.68807,-1.25322 1.81442,-2.50728 -1.57901,-1.74131 -3.78959,-2.76545 -5.66182,-4.15028 -2.659,-1.5836 -5.38537,-3.77605 -8.58955,-3.74837 z"
       id="path3426"
       style="fill:#ffffff;fill-opacity:1"
       inkscape:connector-curvature="0" />
    <path
       d="m -661.52139,71.028017 c -1.83846,0.502835 -2.47946,2.691363 -3.3651,4.231402 -2.66995,5.344206 -2.70266,11.547368 -2.91746,17.425794 -0.19648,9.089967 0.50125,18.221277 2.60075,27.060937 0.65049,2.24274 0.74131,4.99901 2.56039,6.62478 1.75068,1.15883 3.84963,0.0255 5.7231,-0.12539 11.80936,-2.3689 23.70542,-4.35914 35.69362,-5.51332 4.08096,-0.4861 8.21211,-0.74146 12.25164,-1.45992 1.43386,-0.58908 1.5235,-2.53346 2.24293,-3.79091 3.95145,-9.91376 7.86299,-19.84444 11.44511,-29.907445 0.64387,-1.223401 -0.10296,-3.073993 -1.59264,-2.834583 -13.8597,2.526129 -27.59322,6.354822 -40.42849,12.473954 -5.46514,2.449264 -10.54746,5.677954 -15.77939,8.574124 -0.75791,0.51026 -1.80695,0.80913 -2.36809,-0.14297 -0.47135,-0.4161 -0.79317,-1.00859 -0.28036,-1.56649 2.72153,-5.113098 6.27024,-9.770381 8.88781,-14.949981 0.69243,-1.886219 -1.24555,-3.262693 -2.2131,-4.565118 -3.46903,-3.858204 -7.03134,-7.728901 -10.96352,-11.10594 -0.44486,-0.292191 -0.96173,-0.504033 -1.4972,-0.428924 z"
       id="path3428"
       style="fill:#ffffff;fill-opacity:1"
       inkscape:connector-curvature="0" />
    <path
       d="m -600.47674,123.13334 c -19.61936,0.17267 -39.67395,1.48559 -58.54401,7.10316 -3.34397,5.31136 1.31549,12.18851 1.48469,17.93375 5.73883,26.39486 2.64302,53.96814 8.33451,80.315 5.07131,15.08922 19.17711,24.69589 32.96686,30.10055 16.34622,5.501 34.8538,4.9088 51.05308,-1.09009 16.0804,-5.96951 30.77276,-19.81069 32.46953,-38.34882 3.16321,-27.61213 1.93602,-55.96817 9.1354,-82.92876 1.78124,-3.55152 0.12192,-7.34468 -4.01529,-6.96622 -23.97798,-5.41628 -48.42201,-6.46633 -72.88477,-6.11857 z m 7.42346,5.41529 c 6.42846,-0.87127 12.67679,3.18462 13.73337,10.02178 3.44593,10.65229 -9.48881,20.10996 -18.35615,14.48765 -9.00267,-4.06254 -9.19152,-19.03802 -0.0338,-23.13802 1.37227,-0.93564 3.00336,-1.39022 4.65652,-1.37141 z m 39.58047,27.99069 c 12.18956,-0.87026 17.41164,18.27657 7.18725,24.72042 -10.09178,8.4247 -24.90395,-6.48121 -18.72733,-17.61725 2.156,-4.4728 6.87109,-6.95263 11.54008,-7.10317 z m -77.00141,0.17582 c 9.52554,-0.86659 16.08136,10.75785 11.57384,19.30514 -3.54209,7.31065 -13.8928,10.40117 -19.6384,3.93839 -9.09417,-7.51677 -3.39223,-23.20372 8.06456,-23.24353 z m 2.46324,48.28043 c 10.38996,-0.58844 16.78236,13.46615 10.19037,21.59082 -4.93824,6.75721 -16.09553,7.3615 -20.27951,-0.42197 -3.98846,-6.58502 -2.64803,-16.47389 4.69027,-19.76227 1.66759,-0.89245 3.52753,-1.31822 5.39887,-1.40658 z m 71.77126,0.0351 c 8.78171,-0.72082 16.09423,8.97312 12.45114,17.54692 -2.69375,8.33822 -13.77806,12.88671 -20.17828,5.87243 -8.34125,-6.94059 -4.15593,-24.0611 7.72714,-23.41935 z m -34.95771,23.52484 c 9.86076,-0.49002 17.06285,13.32934 9.583,20.92269 -5.92019,8.58022 -21.17783,6.0836 -22.50653,-5.06363 -1.86066,-8.11989 4.72393,-16.64656 12.92353,-15.85906 z"
       id="path3072"
       style="fill:#f9c364;fill-opacity:1"
       inkscape:connector-curvature="0" />
    <path
       d="m -646.6281,74.068249 c -2.50767,-0.406714 -3.67933,2.872025 -1.75463,4.430701 1.9636,2.435779 4.72151,4.541524 6.36054,7.032823 -1.32022,2.879218 -4.57518,5.294329 -4.21786,8.685559 2.16914,2.291794 5.02463,-1.127819 7.42345,-1.476884 9.89778,-4.271346 20.17921,-7.501857 30.31804,-10.90091 2.38685,-1.353194 -0.22277,-3.865162 -2.09206,-3.604328 -11.90347,-2.113223 -23.95826,-3.849812 -36.03748,-4.166961 z"
       id="path3074"
       style="fill:#b72a3a;fill-opacity:1"
       inkscape:connector-curvature="0" />
    <path
       d="m -538.98809,74.068249 c -12.41028,0.711428 -24.76749,2.255717 -36.98228,4.799915 -3.51941,2.756912 2.56746,3.944285 4.59136,4.355503 11.27779,2.985194 22.09613,7.675355 32.69461,12.663969 3.42936,-0.09598 1.25695,-3.87108 0.15184,-5.450455 -1.29196,-2.08538 -3.82364,-5.302946 -1.11352,-7.384469 1.7082,-2.543393 5.89018,-4.09148 5.66881,-7.613053 -0.77047,-1.951572 -3.40162,-1.340161 -5.01082,-1.37141 z"
       id="path3076"
       style="fill:#b72a3a;fill-opacity:1"
       inkscape:connector-curvature="0" />
    <path
       d="m -599.03367,53.936753 c -2.04659,2.288192 1.03685,5.338866 1.37143,7.834817 1.68886,3.530888 2.25611,7.880454 4.80353,10.85496 3.17148,1.39517 3.62594,-3.664667 4.77462,-5.591114 1.25543,-3.811998 3.46987,-7.491975 3.8467,-11.516276 -1.66054,-3.017001 -4.6516,0.435362 -6.4449,1.547233 -1.864,0.985659 -3.83268,-1.88188 -5.69886,-2.45053 -0.83266,-0.527931 -1.63237,-1.013708 -2.65252,-0.67909 z"
       id="path3078"
       style="fill:#b72a3a;fill-opacity:1"
       inkscape:connector-curvature="0" />
    <path
       d="m -592.79122,88.555899 c -2.94498,5.349427 -5.10094,11.37495 -6.51239,17.406271 1.38952,3.63879 4.64048,-0.6087 7.01854,-0.61536 2.62272,-0.059 5.47901,3.75715 7.72713,1.16041 0.20472,-4.30157 -2.44353,-8.288601 -3.74547,-12.272301 -1.29885,-1.81266 -1.70696,-6.316144 -4.48781,-5.67902 z"
       id="path3080"
       style="fill:#b72a3a;fill-opacity:1"
       inkscape:connector-curvature="0" />
    <path
       d="m -631.17383,159.58757 c -7.44685,0.228 -11.76697,10.30822 -7.20412,16.33377 4.29496,6.73069 16.49168,5.13204 17.90064,-3.28786 1.67312,-6.80533 -3.79561,-13.77345 -10.69652,-13.04591 z"
       id="path3082"
       style="fill:#b72a3a;fill-opacity:1"
       inkscape:connector-curvature="0" />
    <path
       d="m -628.12008,208.02624 c -6.12322,-0.33744 -11.17294,6.18441 -9.46491,12.36021 0.82908,6.22623 7.85767,10.75564 13.32847,7.47239 5.82043,-2.59951 8.9618,-11.38578 3.96479,-16.38651 -1.90418,-2.39266 -4.84629,-3.68868 -7.82835,-3.44609 z"
       id="path3084"
       style="fill:#b72a3a;fill-opacity:1"
       inkscape:connector-curvature="0" />
    <path
       d="m -592.42005,230.93571 c -5.75649,0.18038 -10.56069,6.1625 -9.11059,12.13165 0.49104,5.27048 5.84246,9.34502 10.73025,8.8438 7.35022,-0.78275 12.17395,-10.95924 7.03541,-17.0019 -2.06302,-2.65231 -5.38114,-4.15339 -8.65507,-3.97355 z"
       id="path3092"
       style="fill:#b72a3a;fill-opacity:1"
       inkscape:connector-curvature="0" />
    <path
       d="m -556.33197,207.868 c -6.21116,0.22334 -10.97815,7.09996 -8.84065,13.29207 1.18036,6.50184 9.28818,10.33736 14.39137,5.99549 5.74336,-3.64457 6.82215,-13.29103 0.97855,-17.38869 -1.84098,-1.48605 -4.22031,-2.1338 -6.52927,-1.89887 z"
       id="path3090"
       style="fill:#b72a3a;fill-opacity:1"
       inkscape:connector-curvature="0" />
    <path
       d="m -553.61566,159.5524 c -5.06045,0.41542 -10.41648,4.50255 -9.76859,10.33827 -0.35853,6.72126 6.84627,12.69042 12.95729,9.65257 5.41304,-1.65082 9.00203,-8.28578 6.17497,-13.7492 -1.60224,-3.73443 -5.35286,-6.56181 -9.36367,-6.24164 z"
       id="path3088"
       style="fill:#b72a3a;fill-opacity:1"
       inkscape:connector-curvature="0" />
    <path
       d="m -592.63938,130.87601 c -5.67555,0.48806 -10.00906,6.53864 -8.72255,12.37778 0.74578,8.33214 12.71913,11.92718 17.29326,4.87024 3.14772,-4.6585 3.1436,-12.61366 -2.22704,-15.61289 -1.87849,-1.21985 -4.12984,-1.83273 -6.34367,-1.63513 z"
       id="path3086"
       style="fill:#1c8fd2;fill-opacity:1"
       inkscape:connector-curvature="0" />
    <path
       d="m -578.23114,-33.551752 c -2.46001,0.302445 -6.40231,2.635493 -5.23016,5.62627 2.00236,2.240293 6.55383,1.552243 8.09831,-1.002179 1.28662,-2.221732 -0.37996,-4.938876 -2.86815,-4.624091 z"
       id="path3115"
       style="fill:#f9c364;fill-opacity:1"
       inkscape:connector-curvature="0" />
    <path
       d="m -592.42005,-47.054801 c -3.47012,4.886124 -5.11518,11.621302 -2.41262,17.318364 0.70737,1.823786 2.02252,6.157626 4.50468,3.955972 1.55747,-3.763607 3.41329,-7.924104 3.32368,-12.043735 -1.03773,-3.229887 -2.08925,-6.774043 -4.25161,-9.318512 -0.38804,0.0293 -0.77609,0.05861 -1.16413,0.08791 z"
       id="path3109"
       style="fill:#f9c364;fill-opacity:1"
       inkscape:connector-curvature="0" />
    <path
       d="m -605.73164,-33.446259 c -5.81138,1.341256 -0.11813,10.464137 3.9648,5.977912 3.50519,-2.366105 -1.34215,-6.356414 -3.9648,-5.977912 z"
       id="path3113"
       style="fill:#f9c364;fill-opacity:1"
       inkscape:connector-curvature="0" />
    <path
       d="m -571.97182,-19.292673 c -2.55696,4.571131 -5.14364,11.6895331 -11.20266,11.6041831 -2.82699,-0.2725468 -5.95695,-1.5252027 -7.11977,-4.3251951 -3.15356,-1.243231 -4.43545,3.7882454 -7.57529,3.7977329 -4.6888,0.8899255 -9.52167,-1.5982682 -11.45573,-6.2064799 -1.04056,-1.791144 -2.61735,-7.370232 -4.97708,-4.079046 -1.11996,4.01134 -1.93726,9.3124055 -5.71943,11.49869 -4.36479,2.2158069 -7.74572,-2.3745403 -9.95417,-5.62627 -1.17416,-1.607039 -2.872,-5.872346 -5.11206,-3.305435 -1.01329,4.451791 -1.20256,10.047374 -4.96021,13.116244 -3.27054,2.15474922 -6.20915,-1.4397025 -9.17809,-2.2505083 -3.06834,0.8787638 -0.54992,4.63169186 -0.13497,6.6460319 0.4134,2.3632745 2.26512,5.102978 4.82524,3.5164194 16.24169,-4.44189916 32.96884,-7.1305713 49.83833,-6.8394353 17.45806,-0.2956173 34.78543,2.04160222 51.83285,5.6435285 2.99728,0.783204 6.9015,1.1498149 8.5333,-2.3029303 1.12653,-1.79041324 2.97373,-6.959937 -0.658,-6.2768084 -2.52212,1.8655859 -6.57703,4.31134746 -9.16121,1.1428359 -3.32501,-3.3445406 -3.00169,-8.7354324 -5.31452,-12.5536154 -2.91219,-0.329142 -3.58452,3.915651 -5.68567,5.485614 -2.19377,2.7988486 -6.83226,6.4136414 -9.85294,2.7779706 -2.83917,-3.3767456 -3.14352,-8.1896186 -4.89273,-12.0261536 -0.96426,-0.325142 -1.37059,-0.182251 -2.07519,0.562627 z"
       id="path3107"
       style="fill:#f9c364;fill-opacity:1"
       inkscape:connector-curvature="0" />
    <path
       d="m -592.20218,-50.438459 c -0.60789,0.112276 -1.28124,0.785838 -2.40798,2.150919 -2.28428,2.767489 -4.39821,8.801398 -4.40941,12.514433 -0.005,1.739404 -0.21247,1.750586 -3.15853,0.162948 -2.95427,-1.592062 -3.28847,-1.559154 -5.75414,0.358486 -4.93845,3.840817 -2.78954,10.289304 3.59634,10.852361 3.80964,0.335904 4.12159,0.826033 5.75413,8.505903 0.43668,2.054207 1.09876,2.790055 2.12654,2.379046 1.19864,-0.479334 1.26292,-0.201047 0.40654,1.466536 -1.14045,2.2206705 -4.90088,2.7373625 -7.88067,1.075459 -2.05002,-1.143351 -6.43007,-10.826154 -8.16212,-18.054678 -0.65282,-2.724496 -1.46635,-4.9298 -1.8138,-4.921039 -1.98597,0.0502 -2.66141,2.425769 -2.81452,10.037618 -0.42116,20.9368401 -9.61627,20.3711571 -15.94897,-0.977691 -2.67969,-9.033801 -4.37829,-7.619389 -4.75342,3.943351 -0.32192,9.922287 -2.44542,17.2073446 -5.00359,17.2073446 -2.19505,0 -9.81868,-9.3387866 -13.50972,-16.5555526 -1.79387,-3.507406 -3.89755,-6.387574 -4.69087,-6.387574 -2.11307,0 -1.96422,0.609121 4.0967,16.131886 3.0496,7.810411 5.95906,15.3738681 6.4734,16.7836803 1.06844,2.9285521 0.99305,2.885325 4.40942,1.5317144 3.76993,-1.4936948 21.13268,-4.9767151 31.27248,-6.2898065 21.97626,-2.8458951 50.77919,-0.72976317 72.27071,5.3121167 4.06367,1.1424149 7.46173,1.922439 7.56794,1.7598417 0.17786,-0.2722455 12.16717,-30.8417806 13.2908,-33.8932566 0.29402,-0.798492 -0.27079,-1.338471 -1.37599,-1.336176 -1.2746,0.0027 -2.93249,2.165644 -5.25377,6.84383 -3.62824,7.312186 -11.38534,16.5249473 -13.38462,15.8711693 -2.93058,-0.9583253 -4.72015,-7.4978253 -4.72215,-17.2399353 -9.5e-4,-8.495042 -0.20905,-9.622504 -1.75126,-9.613953 -1.31053,0.0073 -2.35183,1.998172 -4.0967,7.98447 -2.77717,9.527948 -7.723,15.8130449 -11.00791,13.9809679 -2.50728,-1.3983769 -4.15924,-8.5039159 -4.15924,-17.8265489 0,-9.738555 -2.4453,-10.003317 -4.97232,-0.521435 -1.78135,6.683996 -4.32358,12.418294 -6.8174,15.382324 -1.76301,2.0954209 -6.26837,2.4297751 -8.03703,0.586614 -1.55011,-1.615379 -1.52799,-3.005602 0.0312,-2.672353 0.67603,0.144485 1.67985,-1.599002 2.25161,-3.910761 1.44729,-5.851648 2.1334,-6.655952 5.69159,-6.550523 4.8993,0.145165 8.02287,-6.891173 4.62833,-10.428694 -1.67833,-1.749026 -6.82228,-1.589656 -8.81883,0.293307 -1.52474,1.437976 -1.66261,1.271425 -1.78254,-2.05315 -0.14545,-4.031887 -3.14517,-10.844592 -5.75414,-13.101046 -0.55748,-0.482152 -0.96476,-0.754389 -1.37599,-0.782153 -0.0857,-0.0058 -0.16334,-0.01604 -0.25017,0 z m 0.43782,4.595144 1.8138,3.584864 c 1.00893,1.974293 1.85373,4.2888 1.87635,5.149168 0.0226,0.860367 -0.77873,3.828704 -1.78253,6.583113 l -1.8138,5.018809 -1.87635,-4.367016 c -2.17656,-5.030039 -2.16495,-8.062435 0.12509,-12.677381 l 1.65744,-3.291557 z m 13.66607,13.361764 c 1.47221,-0.112854 2.23405,1.040306 1.50108,3.03084 -0.42827,1.163046 -1.60782,1.68465 -3.53379,1.531714 -3.56609,-0.283171 -3.66748,-1.315513 -0.344,-3.584864 0.892,-0.609075 1.70752,-0.926392 2.37671,-0.97769 z m -27.39469,0.03259 c 0.70684,-0.06517 1.60402,0.258251 2.47052,1.075459 1.56311,1.474171 1.72298,2.126976 0.75054,2.770122 -2.00394,1.325371 -3.78516,1.030632 -4.44069,-0.749562 -0.66021,-1.792959 0.0416,-2.987409 1.21963,-3.096019 z m 34.775,13.589892 1.40726,5.214347 c 2.65997,9.8175942 8.60705,11.7189129 14.69806,4.6929129 1.99044,-2.2959649 3.62761,-4.6737499 3.62761,-5.2795259 0,-2.784025 1.78626,0.486426 2.37671,4.3344253 0.96297,6.275672 5.46281,10.73843925 9.28793,9.22287714 1.55312,-0.61536984 3.61829,-1.84394734 4.56578,-2.73753264 1.62742,-1.5348266 1.62658,-1.3939993 0.0937,2.67235299 -1.82217,4.83419691 -2.16929,4.92693711 -10.94537,2.77012201 -22.56157,-5.5447585 -54.13635,-6.935791 -75.92958,-3.3567359 -6.05436,0.99429366 -14.27335,2.6757016 -18.23186,3.7478118 l -7.19262,1.9553798 -0.93818,-2.7375317 c -0.52594,-1.51160694 -1.31346,-3.6907388 -1.75125,-4.8232717 -0.74378,-1.9240702 -0.61167,-1.9069668 2.03271,0.2607176 6.22545,5.1031949 11.67777,1.4105963 13.16571,-8.9295687 l 0.65672,-4.562554 2.34544,4.138887 c 6.05822,10.5870953 14.46254,9.7534586 17.3875,-1.727252 l 1.15708,-4.562553 2.06398,4.367015 c 2.60091,5.4783206 5.46803,7.4498841 10.9141,7.5282139 3.41507,0.04912 4.74842,-0.4741029 6.53595,-2.6397636 2.07894,-2.5186973 2.28613,-2.5871643 2.8458,-0.7495623 0.71895,2.3606577 4.90731,4.0915944 8.88139,3.6500435 3.57922,-0.3976809 6.29056,-2.9236891 8.91265,-8.2777765 l 2.03271,-4.171478 z m -20.29584,26.1695011 c -22.65613,-0.102894 -34.85702,1.3439858 -48.78508,5.8009619 -6.75234,2.16075 -6.92827,2.452689 -5.34759,9.548772 4.62641,20.76923 -25.06557,28.890032 -41.81131,11.438975 l -5.41014,-5.638013 -4.00288,3.97594 c -18.03138,17.985585 -23.34108,48.719755 -12.35263,71.403972 2.72912,5.63388 3.62829,6.58615 7.13013,7.65857 13.07532,4.00423 25.51835,16.53413 25.51835,25.71325 0,5.26989 -3.95309,10.08065 -8.97521,10.91753 l -3.78397,0.61922 -0.59417,7.98446 c -0.5674,7.618 -0.46354,12.63959 0.9069,50.70952 0.81861,22.7407 3.00761,33.14545 9.60065,45.36483 7.51313,13.92467 20.17689,26.05672 34.02446,32.58967 3.61503,1.70547 3.70537,1.68054 5.25378,-0.78215 4.70511,-7.48337 21.94343,-11.69881 27.86378,-6.81125 3.93456,3.24819 3.64161,7.30728 -0.84436,12.48185 l -3.56506,4.13889 5.31632,0.45625 c 8.47387,0.72787 39.14675,-0.0679 41.65495,-1.07546 l 2.28289,-0.91251 -3.03343,-3.03084 c -3.99091,-3.98457 -4.16322,-8.84835 -0.40654,-11.92782 5.66674,-4.64521 19.8428,-1.82746 26.20634,5.21435 l 3.59633,3.97594 8.03703,-4.36701 c 15.02936,-8.14758 28.56614,-24.53125 34.18082,-41.3563 3.67387,-11.00917 4.40956,-19.33883 5.06614,-57.52076 l 0.62545,-35.0339 -3.9716,-0.65179 c -4.18688,-0.69771 -7.57704,-3.68633 -9.16284,-8.04965 -2.9732,-8.18077 9.19846,-22.85141 23.26673,-28.02711 6.27742,-2.30946 6.37747,-2.39565 9.41302,-9.28806 4.07159,-9.244834 5.11357,-14.500525 5.12869,-25.745847 0.0218,-16.242328 -5.55939,-31.11097 -16.01152,-42.562107 l -5.87923,-6.452754 -2.62688,3.389325 c -10.01108,13.025311 -30.22988,16.40367 -39.62224,6.615704 -4.87329,-5.078547 -6.33956,-10.675247 -4.47196,-17.142167 l 1.40725,-4.823271 -7.00503,-2.183508 C -559.12305,8.67317 -568.40369,7.4131132 -591.01382,7.3104321 z m -3.00217,4.8558609 c 15.2876,-0.144448 30.47803,1.719502 45.09492,5.605423 l 6.5985,1.759843 -0.43781,4.953629 c -0.5889,6.387025 3.08425,15.177897 7.97448,19.064957 10.79714,8.582256 28.58889,7.541215 39.84114,-2.346457 2.65966,-2.337118 5.24672,-4.269246 5.72287,-4.269246 1.31405,0 7.69877,9.222371 10.66391,15.382321 6.50251,13.508675 7.29021,30.871716 2.00144,44.908567 -2.86357,7.60018 -2.92754,7.64476 -8.85011,10.13539 -12.15009,5.10951 -22.47755,15.2938 -25.61216,25.19181 -2.32638,7.34593 1.35381,15.68863 8.53739,19.32568 l 4.53451,2.28128 0,18.08727 c 0,23.30922 -1.73515,52.11015 -3.62761,60.74714 -3.96791,18.10895 -16.82901,35.58515 -33.05502,44.84338 l -4.15924,2.34646 -3.84651,-3.19378 c -7.77246,-6.49632 -22.01274,-8.92807 -29.2085,-4.98622 -4.36864,2.39313 -7.50528,9.33831 -6.2545,13.8832 0.86539,3.14448 0.84477,3.16969 -3.65888,3.81299 -5.10563,0.72896 -20.20361,0.75885 -21.89074,0.0325 -0.68226,-0.29369 -0.91473,-2.40273 -0.62545,-5.54025 0.42551,-4.61482 0.16268,-5.41256 -2.90834,-8.89697 -4.05496,-4.60083 -8.77442,-5.93008 -16.73078,-4.75809 -7.14576,1.05258 -12.83774,3.49681 -16.38678,7.03937 -2.65977,2.65493 -2.85817,2.68597 -6.00431,1.10804 -15.379,-7.71323 -29.88041,-26.84567 -34.24337,-45.16922 -2.01764,-8.47368 -3.51508,-33.11396 -3.53379,-58.49846 l 0,-20.95516 4.06542,-1.9228 c 4.8585,-2.28314 7.55205,-5.59595 8.94393,-10.98271 2.82856,-10.94691 -9.44552,-27.27455 -25.20562,-33.50218 -5.6313,-2.22521 -6.31608,-2.82202 -8.47484,-7.691169 -8.03507,-18.123257 -4.52736,-43.851755 8.0683,-59.248017 l 3.31488,-4.041118 5.59778,4.399605 c 20.85266,16.407035 48.34351,7.401962 48.15962,-15.7734 l -0.0625,-6.9416 10.06973,-2.183507 c 11.76374,-2.56109 23.69774,-3.896182 35.58808,-4.00853 z m 2.18908,25.224404 c -9.9645,-0.02329 -19.8541,0.585722 -25.36198,1.857612 -25.12399,5.801684 -43.62033,18.114619 -51.13051,34.023614 -3.23214,6.846793 -3.27615,7.066457 -3.18979,21.541771 0.0913,15.311086 1.33563,22.742996 6.97376,42.236216 4.41783,15.27413 6.46444,31.02877 7.00504,53.70778 0.76434,32.06607 3.26043,42.61598 12.75917,54.19661 8.39825,10.23895 25.3662,19.14236 40.87314,21.41142 23.46168,3.43304 47.59263,-3.86182 62.01333,-18.73906 12.29531,-12.68457 14.57027,-21.02007 15.88642,-58.43328 0.90197,-25.63936 2.24342,-36.35429 6.47341,-51.1006 6.45125,-22.48997 7.00798,-25.75537 7.0363,-42.757653 0.0262,-15.735312 -0.0639,-16.31413 -2.87706,-22.291327 -7.22473,-15.350523 -26.7085,-28.299696 -50.66143,-33.665133 -5.79606,-1.298312 -15.83529,-1.964678 -25.7998,-1.98797 z m -4.09669,4.986219 c 5.88485,-0.109169 14.49474,0.208767 17.91913,0.782153 0.27519,0.04609 -2.65191,2.19835 -6.50468,4.758094 -3.85276,2.559744 -7.2302,4.627262 -7.50539,4.59514 -0.2752,-0.03219 -3.58385,-2.100426 -7.34903,-4.59514 l -6.84868,-4.529967 5.59778,-0.749562 c 1.07086,-0.139433 2.72925,-0.224327 4.69087,-0.260718 z m 21.42165,1.303587 4.81596,0.716974 c 14.24699,2.136303 31.07477,10.189596 40.81059,19.521211 l 6.19195,5.931316 -14.41661,0.130363 c -10.58774,0.08794 -18.23082,0.808678 -28.89577,2.770123 -7.98075,1.467766 -16.03615,2.989688 -17.88787,3.389326 -4.03609,0.871087 -4.32515,2.2656 3.59634,-17.826551 l 5.78541,-14.632762 z m -36.33863,0.260718 c 1.15576,-0.03663 1.74364,0.18456 2.03272,0.651794 0.98147,1.586381 11.78972,30.205452 11.78972,31.220898 0,0.838886 -3.40445,1.047293 -4.15924,0.260726 -1.74257,-1.815987 -32.81213,-6.060688 -45.03237,-6.159449 -15.58741,-0.125907 -15.68669,-0.227897 -7.13013,-7.691165 9.23466,-8.054717 22.22138,-14.161895 37.05789,-17.402883 2.55091,-0.55724 4.28566,-0.843292 5.44141,-0.879921 z m 11.82101,10.656825 3.84651,2.313866 3.81524,2.313866 3.15852,-2.346459 c 3.86156,-2.86545 3.88171,-3.067349 0.0937,6.876422 -1.69902,4.460164 -3.28237,8.307032 -3.50252,8.538492 -0.39843,0.418923 -1.70152,-2.594035 -5.44141,-12.481845 l -1.97017,-5.214342 z m -62.32607,17.793957 c 1.04514,0 13.29081,12.82297 13.29081,13.915792 0,0.440652 -2.31741,4.327248 -5.12869,8.668845 -4.96714,7.67104 -5.05893,7.94875 -3.25234,9.77691 1.79619,1.81762 2.13025,1.73302 9.38175,-2.73754 10.16963,-6.269586 25.14899,-12.20153 38.96551,-15.414915 6.30231,-1.465765 11.57288,-2.53985 11.72718,-2.379043 0.24656,0.256938 -12.40008,33.062798 -12.97808,33.665128 -0.12397,0.1292 -5.85301,0.77916 -12.7279,1.43395 -6.87489,0.65479 -17.43128,2.10912 -23.48563,3.22638 -6.05435,1.11726 -12.217,2.30774 -13.66608,2.63976 -3.26545,0.74821 -3.31267,0.66461 -5.41014,-9.51618 -2.60931,-12.66521 -2.44161,-31.92826 0.31273,-38.325461 1.17304,-2.724496 2.51124,-4.953626 2.97088,-4.953626 z m 139.00619,0 c 4.76657,0 6.55944,27.511716 2.90834,44.582667 -1.98247,9.26914 -1.8884,9.2129 -8.53739,7.49563 -5.1943,-1.34156 -29.33283,-4.87762 -38.65278,-5.6706 l -8.13085,-0.71698 -6.31704,-16.58814 c -3.46767,-9.123408 -6.10937,-16.765316 -5.87923,-16.979218 0.80006,-0.74358 17.91189,3.457879 26.86306,6.583112 9.05872,3.162783 20.16236,8.559279 27.36343,13.296596 3.06994,2.01959 4.18856,2.27895 5.31631,1.30358 2.15087,-1.86024 1.8441,-2.78308 -3.75269,-11.667106 l -5.15996,-8.180006 6.37959,-6.746059 c 3.5143,-3.695179 6.94084,-6.713476 7.59921,-6.713476 z m -14.97952,2.900477 c 1.16722,-0.0079 2.12475,0.04603 2.81453,0.130363 0.53532,0.06546 -1.24264,2.12131 -3.94034,4.595139 -5.27065,4.833303 -5.26692,4.841459 -1.03199,11.406385 1.38752,2.15092 2.39723,3.888442 2.25162,3.845583 -0.14562,-0.04289 -3.40245,-1.700669 -7.25522,-3.682636 -6.11726,-3.146864 -19.77258,-8.04764 -29.02086,-10.396102 l -3.00216,-0.749557 3.50252,-0.814743 c 9.05436,-2.110867 27.51134,-4.279119 35.6819,-4.334432 z m -108.20279,0.03258 c 7.31969,0.03003 25.85627,2.172727 34.49355,4.236653 l 3.50251,0.847336 -4.50323,1.238407 c -8.84973,2.459677 -20.6369,6.688901 -26.92561,9.646535 -3.51609,1.653659 -6.56062,2.998257 -6.78613,2.998257 -0.22551,0 0.918,-2.036299 2.56435,-4.529963 l 3.00215,-4.529973 -4.44069,-4.529963 c -2.43396,-2.489365 -4.20262,-4.745455 -3.94033,-5.018802 0.23511,-0.245014 1.34427,-0.365416 3.03343,-0.358487 z m 53.4134,14.534946 c 0.52456,0.05604 2.18565,3.374968 3.84652,7.756342 1.77159,4.673462 3.07549,8.690192 2.87706,8.896972 -0.19843,0.20679 -1.74057,-0.43624 -3.4087,-1.43393 -2.69446,-1.61154 -3.34134,-1.64716 -5.87922,-0.32591 -1.5712,0.818 -3.15597,1.62758 -3.53379,1.82503 -0.80292,0.41961 4.94728,-15.563029 6.00431,-16.685911 0.0245,-0.02611 0.0588,-0.03631 0.0937,-0.03248 z m -0.344,20.694444 c 2.08281,-0.20125 3.97054,0.90273 7.38031,3.09601 3.33442,2.14481 6.06686,4.06398 6.06686,4.26925 0,0.20526 -5.96679,0.36058 -13.25953,0.35849 l -13.25954,0 4.47197,-3.09597 c 4.24184,-2.93258 6.51713,-4.42649 8.59993,-4.62773 z m -3.9716,13.06845 c 20.71099,-0.22918 41.66136,1.40937 60.2308,4.95364 6.21702,1.18661 11.65515,2.38425 12.10245,2.67235 0.4473,0.28808 -0.19919,4.26016 -1.4698,8.8318 -3.53248,12.70973 -5.46752,28.83379 -6.00433,50.12291 -0.74528,29.55745 -2.35631,38.09112 -9.16283,48.36307 -5.54988,8.37548 -19.13696,17.16545 -31.61648,20.43372 -24.45351,6.40417 -49.3314,0.80723 -65.20313,-14.66535 -11.67684,-11.38319 -13.22143,-17.00413 -14.51043,-52.53454 -0.92269,-25.43348 -2.37203,-37.77514 -6.00432,-51.32874 -2.63245,-9.82282 -2.74734,-9.34859 2.81453,-10.59164 17.6519,-3.94511 38.11255,-6.02803 58.82354,-6.25722 z m 4.87851,3.22638 c -0.40785,0.008 -0.82344,0.0322 -1.2509,0.0652 -14.70194,1.13234 -18.30753,21.65987 -4.90978,27.92935 12.26553,5.73965 24.21547,-6.5551 18.79476,-19.32567 -2.57239,-6.06028 -6.5164,-8.78665 -12.63408,-8.66886 z m -0.40654,5.24694 c 2.80926,-0.0772 5.71893,1.17595 7.66175,3.81299 2.16492,2.9385 1.53546,9.3174 -1.18836,12.15595 -7.36253,7.67264 -19.16398,-2.48414 -13.6348,-11.73228 1.63548,-2.73551 4.35215,-4.15936 7.16141,-4.23666 z m -37.80844,23.00831 c -3.7304,-0.0766 -7.61819,1.40827 -10.75773,4.82327 -6.75723,7.3501 -4.2493,19.25413 4.97232,23.69269 8.69204,4.18366 19.47276,-3.28964 19.48276,-13.49213 0.008,-9.00971 -6.57567,-14.87744 -13.69735,-15.02383 z m 75.89832,0 c -6.5272,0.20876 -12.84151,4.90532 -13.82244,13.13363 -0.63099,5.29295 3.12805,12.58215 7.69303,14.95866 1.92639,1.00287 4.85349,1.82502 6.50467,1.82502 10.36185,0 17.58161,-12.34772 12.79045,-21.83508 -2.88879,-5.72034 -8.08901,-8.24461 -13.16571,-8.08223 z m 0.65672,5.60542 c 6.99208,-0.13603 11.93022,9.56606 6.16067,15.38232 -6.05072,6.09971 -15.16715,2.37354 -15.16715,-6.19203 0,-4.38131 1.54276,-6.60325 5.9105,-8.50591 1.05764,-0.46071 2.09711,-0.66495 3.09598,-0.68438 z m -76.80522,0.0326 c 7.39797,0.11289 11.95227,9.70528 5.94178,15.96894 -2.9248,3.04799 -9.38228,2.80217 -12.54027,-0.48885 -4.46465,-4.65269 -2.67143,-12.78443 3.28361,-14.89347 1.15127,-0.40773 2.25803,-0.60274 3.31488,-0.58662 z m 1.28217,42.79024 c -4.47691,0.18092 -8.89971,2.55797 -11.53954,7.56081 -3.73653,7.08119 -1.00219,16.72833 5.72286,20.27077 9.91778,5.22421 20.98356,-1.86339 20.73366,-13.29658 -0.19526,-8.93333 -7.03395,-14.36511 -14.01007,-14.535 -0.29833,-0.007 -0.60844,-0.0121 -0.90691,0 z m 72.70853,0.0327 c -4.96196,-0.014 -9.91648,2.51914 -12.509,8.21259 -3.34955,7.35596 0.0891,17.22385 7.03631,20.23819 9.43819,4.09517 19.77307,-3.04775 19.8893,-13.72025 0.10034,-9.21256 -7.16452,-14.71002 -14.41661,-14.73053 z m 0.28145,5.3773 c 6.92301,-0.13821 12.31925,9.02953 5.81668,15.80598 -1.94212,2.02393 -3.93449,3.03084 -5.94178,3.03084 -7.9055,0 -11.8061,-10.89336 -5.81668,-16.26224 1.95198,-1.74974 4.00333,-2.5359 5.94178,-2.57458 z m -72.36453,0.16294 c 2.22859,-0.095 4.52926,0.65956 6.41086,2.47681 3.76149,3.63286 3.64266,9.07685 -0.28145,13.16623 -5.42901,5.65768 -13.48438,2.64266 -14.72934,-5.50765 -0.86566,-5.66717 3.69703,-9.92631 8.59993,-10.13539 z m 36.5888,17.79396 c -14.1068,-0.21417 -20.12321,18.47905 -7.97448,27.08202 4.53294,3.20995 13.43612,2.3441 17.48132,-1.69467 8.97742,-8.96318 4.12153,-24.09529 -8.13084,-25.32217 -0.4716,-0.0472 -0.92093,-0.0583 -1.376,-0.0652 z m -0.56289,5.14917 c 1.5518,-0.002 3.19202,0.47455 4.97232,1.43394 5.9903,3.2282 5.65219,12.56716 -0.59418,16.03412 -9.12362,5.06394 -17.83499,-8.03965 -10.00719,-15.05643 1.7928,-1.60706 3.63386,-2.40943 5.62905,-2.41163 z"
       id="path2987"
       style="fill:#060606"
       inkscape:connector-curvature="0" />
  </g>
  <g
     id="g3284"
     transform="matrix(0.25433799,0,0,0.25433799,76.922283,5.4901236)">
    <path
       d="m 9.401767,166.48037 c 0,79.14568 -15.58012,106.85712 -6.6277,134.80151 4.26531,13.31388 22.516025,11.74447 25.662945,0 7.25294,-27.06834 -6.31524,-46.94263 -6.31524,-133.73221 0,-10.61685 15.19489,-25.42228 15.19489,-52.78077 C 37.316662,66.12688 30.424752,0 15.408187,0 1.012477,0 4.308631,85.24269 4.308631,131.86204 c 0,20.02493 5.093136,25.23667 5.093136,34.61833 z"
       id="path3688"
       style="color:#000000;fill:url(#linearGradient3511);fill-opacity:1;fill-rule:nonzero;stroke:none;stroke-width:1;marker:none;visibility:visible;display:inline;overflow:visible;enable-background:accumulate"
       inkscape:connector-curvature="0" />
    <path
       d="m 34.770672,121.67676 c -2.20744,28.58055 -14.142153,34.29467 -20.152561,28.63782 -6.010407,-5.65685 -6.010407,-19.09188 -6.010407,-41.01219 0,-21.92031 -3.692132,-107.48023 6.363961,-107.48023 14.916447,0 24.309077,61.46102 19.799007,119.8546 z"
       id="path3743"
       style="opacity:0.3;color:#000000;fill:url(#linearGradient3513);fill-opacity:1;fill-rule:nonzero;stroke:none;stroke-width:1;marker:none;visibility:visible;display:inline;overflow:visible;enable-background:accumulate"
       inkscape:connector-curvature="0" />
    <path
       d="m 8.092016,59.97733 c 0.512867,-3.09073 3.141639,-5.51555 5.812241,-6.84467 1.771054,-1.35491 4.362411,-1.60026 5.545933,-3.71553 1.568791,-2.22859 2.799082,-4.68888 4.680982,-6.69468 1.40154,-2.5933 4.84704,-2.32611 6.25221,-4.85112 1.72241,-2.44881 0.88423,1.85057 1.66055,2.71788 -0.0149,2.0119 1.63306,4.15715 0.36375,6.06531 -2.30837,2.06843 -3.81893,4.8439 -4.60355,7.82395 -0.33998,2.51749 -2.32356,3.90564 -4.74187,3.45569 -1.949692,0.83076 -2.979766,2.88528 -4.562466,4.19972 -1.799198,2.43796 -4.504948,4.00287 -6.301081,6.42341 -1.375499,1.95026 -2.31316,4.25554 -3.859365,6.03938 C 7.825226,69.20885 7.95747,64.95906 8.092016,59.97733 z"
       id="path3780"
       style="opacity:0.3;color:#000000;fill:url(#linearGradient3515);fill-opacity:1;fill-rule:nonzero;stroke:none;stroke-width:1;marker:none;visibility:visible;display:inline;overflow:visible;enable-background:accumulate"
       inkscape:connector-curvature="0" />
    <path
       d="m 33.656232,51.81754 c -2.11654,2.20548 -3.6974,6.24941 -5.32102,8.74117 -2.4928,1.05123 -3.87155,3.2234 -5.12281,5.53253 -1.765254,2.4836 -4.601591,3.63956 -6.98836,5.3984 -3.136132,1.42886 -3.993393,4.91925 -6.28834,7.1014 -2.803493,0.41929 -1.673341,18.94963 -0.902603,18.38499 2.845183,-1.71554 4.77906,-4.4281 6.96844,-6.80351 2.888338,-1.95533 5.459643,-4.41712 7.622603,-7.14767 2.44146,-4.38253 4.73013,-8.88475 6.69771,-13.50651 1.09229,-2.36391 0.0128,-4.99206 1.12951,-7.347 0.73291,-2.67808 2.94482,-4.58562 2.57012,-7.67764 -0.12315,-0.66368 -0.23643,-1.7569 -0.36525,-2.67616 z"
       id="path3790"
       style="opacity:0.3;color:#000000;fill:url(#linearGradient3517);fill-opacity:1;fill-rule:nonzero;stroke:none;stroke-width:1;marker:none;visibility:visible;display:inline;overflow:visible;enable-background:accumulate"
       inkscape:connector-curvature="0" />
    <path
       d="m 4.897226,298.37299 c 1.546895,7.00601 8.110993,11.9289 14.884672,8.74162 7.511554,-3.53449 8.587014,-15.23602 8.639134,-21.57676 0.0924,-11.24267 -1.08126,-19.55103 -2.42916,-30.56331 -0.41872,-3.42089 -1.09867,-9.78773 -1.78561,-12.92237 -0.0206,8.87129 1.35848,17.46979 -0.29165,26.29117 -2.4483,8.28959 0.27533,23.44127 -7.621726,28.99423 -3.916863,2.75421 -10.959303,-2.69782 -11.39566,1.03542 z"
       id="path3868"
       style="opacity:0.3;color:#000000;fill:url(#linearGradient3519);fill-opacity:1;fill-rule:nonzero;stroke:none;stroke-width:1;marker:none;visibility:visible;display:inline;overflow:visible;enable-background:accumulate"
       inkscape:connector-curvature="0" />
  </g>
  <g
     id="g3291"
     transform="matrix(0.32794618,0,0,0.32794618,-18.758542,-16.411025)">
    <path
       d="m 85.769302,167.15852 c 0,79.14569 -15.28812,101.80224 -6.6277,134.12336 3.6184,13.50405 22.516028,11.74447 25.662948,0 7.99219,-29.82727 -6.315238,-57.27894 -6.315238,-134.83002 0,-10.61686 10.200008,-10.89112 15.720018,-24.58892 4.92871,-12.23054 -2.02916,-78.09787 -4.27111,-78.09787 -2.55821,0 -1.30597,57.04007 -6.15556,57.04007 -4.892618,0 -2.41828,-56.26649 -5.512598,-57.04007 -3.09433,-0.77358 -0.82481,57.04007 -6.54964,57.04007 -5.78256,0 -2.02421,-57.04007 -5.11854,-57.04007 -3.09431,0 -2.22373,57.04007 -6.94369,57.04007 -5.19611,0 -2.40372,-57.04007 -4.72447,-57.04007 -3.9445,0 -8.56444,61.94674 -6.11111,75.0312 2.45334,13.08446 16.94669,15.56395 16.94669,28.36225 z"
       id="path3642"
       style="color:#000000;fill:url(#linearGradient3521);fill-opacity:1;fill-rule:nonzero;stroke:none;stroke-width:1;marker:none;visibility:visible;display:inline;overflow:visible;enable-background:accumulate"
       inkscape:connector-curvature="0" />
    <path
       d="m 111.28085,141.21683 c -1.06136,3.81955 -4.43484,6.12179 -6.72144,9.05262 -2.92849,2.52741 -5.883908,5.71638 -10.030368,5.49939 -3.83179,0.0201 -7.41021,-1.70513 -11.02542,-2.86528 -3.71415,-2.09643 -6.34067,-5.88751 -7.95876,-9.87869 0.21146,-2.98803 3.06597,2.69083 5.33636,1.64588 2.40854,-0.59532 5.33093,0.92379 7.34002,-1.21934 1.56272,-2.74268 5.314,1.82055 6.39152,-2.12838 1.77759,-2.23901 5.13664,-1.52094 6.936898,-3.68918 2.69533,-2.35453 4.72198,-5.86403 8.40263,-6.82307 1.715,-0.90748 3.90895,-5.32797 3.58674,-1.08382 0.81338,3.57648 -1.06726,8.08387 -2.25818,11.48987 z"
       id="path3800"
       style="opacity:0.3;color:#000000;fill:url(#linearGradient3523);fill-opacity:1;fill-rule:nonzero;stroke:none;stroke-width:1;marker:none;visibility:visible;display:inline;overflow:visible;enable-background:accumulate"
       inkscape:connector-curvature="0" />
    <path
       d="m 73.973139,65.500034 a 0.47948601,0.93398889 13.552465 1 1 -0.93227,-0.224721 0.47948601,0.93398889 13.552465 0 1 0.93227,0.224721 z"
       id="path3811"
       style="opacity:0.3;color:#000000;fill:#ffffff;fill-opacity:0.77690519;fill-rule:nonzero;stroke:none;stroke-width:1;marker:none;visibility:visible;display:inline;overflow:visible;enable-background:accumulate"
       inkscape:connector-curvature="0" />
    <path
       d="m 80.897222,298.37299 c 1.5469,7.00601 8.111,11.9289 14.88468,8.74162 7.511548,-3.53449 8.587008,-15.23602 8.639128,-21.57676 0.0924,-11.24267 -1.08126,-19.55103 -2.42916,-30.56331 -0.41872,-3.42089 -1.09867,-9.78773 -1.78561,-12.92237 -0.0206,8.87129 1.35848,17.46979 -0.291648,26.29117 -2.4483,8.28959 0.275328,23.44127 -7.62173,28.99423 -3.91686,2.75421 -10.9593,-2.69782 -11.39566,1.03542 z"
       id="path3882"
       style="opacity:0.3;color:#000000;fill:url(#linearGradient3525);fill-opacity:1;fill-rule:nonzero;stroke:none;stroke-width:1;marker:none;visibility:visible;display:inline;overflow:visible;enable-background:accumulate"
       inkscape:connector-curvature="0" />
  </g>
</svg>
